<svg xmlns="http://www.w3.org/2000/svg" xmlns:xlink="http://www.w3.org/1999/xlink" version="1.1" x="0px" y="0px" viewBox="0 0 100 125" style="enable-background:new 0 0 100 100;" xml:space="preserve">
    <style>
    path {
        fill: #000000;
    }

    @media (prefers-color-scheme: dark) {
        path {
            fill: #FFFFFF;
        }
    }
    </style>

    <g><g><path d="M51,100c-6.7,0-13.2-1.7-18.7-4.6C19.9,88.9,8,73.8,15.6,52.9c1.9-5.3,2.7-10.5,2.3-15.5    c-0.2-2.6-0.5-5.1-0.9-7.6c0-0.2-4.2-22.4,14.5-27.5c9.2-3,28.1-3,37.3,0c18.6,5.1,14.5,27.3,14.4,27.5    c-1.4,8.6-1.6,14.8,1.4,23.1l0,0c4,11.2,2.6,22.4-4,31.7C72.6,95.6,61.6,100,51,100z M50,2.3c-6.8,0-13.5,0.7-18,2.2    C15.4,9,19,28.5,19.2,29.4c0.4,2.6,0.7,5.2,0.9,7.8c0.4,5.3-0.4,10.9-2.4,16.4c-7.1,19.6,4,33.6,15.6,39.7    c13.4,7,33.2,6.8,45.3-10.1c6.2-8.8,7.5-19,3.7-29.6l0,0c-3.1-8.7-2.9-15.2-1.5-24.2C81.1,28.5,84.7,9,68.1,4.5    C63.6,3,56.8,2.3,50,2.3z M37.1,34.4c-1.4,0-2.8-0.4-4.1-1.2c-1.9-1.2-3.1-3.1-3.5-5.2c0-0.1-0.1-0.5-0.1-0.6    c-0.2-1.5-0.4-4.5,0.2-7.3l0,0c0.9-3.7,2.6-4.9,5.1-5.6c9.2-2.5,22.8-2.5,30.4-0.1c2.4,0.6,4.4,1.5,5.4,5.6c0.5,2.3,0.6,5,0.1,8    c-0.3,2.2-1.6,4.1-3.5,5.2c-1.9,1.2-4.2,1.5-6.4,0.8c-6.9-2.1-14.5-2.1-21.4,0C38.6,34.3,37.8,34.4,37.1,34.4z M31.7,27    c0,0.2,0.1,0.6,0.1,0.7c0.2,1.5,1.1,2.8,2.4,3.7c1.3,0.8,3,1,4.5,0.6c7.3-2.3,15.4-2.3,22.7,0c1.5,0.5,3.2,0.3,4.5-0.6    c1.3-0.8,2.2-2.1,2.4-3.7c0.4-2.7,0.4-5.1-0.1-7.1c-0.7-3-1.8-3.4-3.8-4c-7.1-2.3-20.4-2.3-29.1,0.1c-1.9,0.5-2.9,1.2-3.5,3.9l0,0    C31.3,23,31.5,25.8,31.7,27L31.7,27z"/></g></g><text x="0" y="115" fill="#000000" font-size="5px" font-weight="bold" font-family="'Helvetica Neue', Helvetica, Arial-Unicode, Arial, Sans-serif">Created by Andrei Yushchenko</text><text x="0" y="120" fill="#000000" font-size="5px" font-weight="bold" font-family="'Helvetica Neue', Helvetica, Arial-Unicode, Arial, Sans-serif">from the Noun Project</text>
</svg>
